<svg width="20" height="20" viewBox="0 0 20 20" fill="none" xmlns="http://www.w3.org/2000/svg">
<circle cx="10" cy="10" r="10" fill="#4BDE95"/>
<g clip-path="url(#clip0_514_190)">
<path d="M15.9621 6.39753L14.8001 5.23853C14.6461 5.08574 14.438 5 14.2211 5C14.0042 5 13.7961 5.08574 13.6421 5.23853L8.05512 10.8385L5.55512 8.32253C5.47999 8.2454 5.38985 8.1845 5.29027 8.14356C5.19068 8.10263 5.08377 8.08254 4.97612 8.08453C4.86897 8.08295 4.76263 8.10324 4.66359 8.14416C4.56455 8.18508 4.4749 8.24577 4.40012 8.32253L3.23812 9.47953C3.08557 9.63362 3 9.84169 3 10.0585C3 10.2754 3.08557 10.4834 3.23812 10.6375L6.32112 13.7225L7.47912 14.8805C7.63309 15.0333 7.84121 15.119 8.05812 15.119C8.27503 15.119 8.48315 15.0333 8.63712 14.8805L9.80012 13.7225L15.9661 7.55653C16.1187 7.40243 16.2042 7.19436 16.2042 6.97752C16.2042 6.76069 16.1187 6.55262 15.9661 6.39853L15.9621 6.39753Z" fill="white"/>
</g>
<defs>
<clipPath id="clip0_514_190">
<rect width="13.2" height="10.117" fill="white" transform="translate(3 5)"/>
</clipPath>
</defs>
</svg>
