<svg width="8" height="14" viewBox="0 0 8 14" fill="none" xmlns="http://www.w3.org/2000/svg">
<path d="M6.3578 0.277154L0.194803 6.36615C0.133122 6.42666 0.0841247 6.49887 0.0506763 6.57854C0.0172279 6.65821 0 6.74375 0 6.83015C0 6.91656 0.0172279 7.0021 0.0506763 7.08177C0.0841247 7.16144 0.133122 7.23364 0.194803 7.29415L6.3578 13.3882C6.53934 13.5662 6.7835 13.666 7.0378 13.666C7.29211 13.666 7.53627 13.5662 7.7178 13.3882C7.80682 13.3003 7.87749 13.1957 7.92573 13.0803C7.97397 12.965 7.99882 12.8412 7.99882 12.7162C7.99882 12.5911 7.97397 12.4673 7.92573 12.352C7.87749 12.2366 7.80682 12.132 7.7178 12.0442L2.4458 6.83215L7.7188 1.62215C7.80797 1.53432 7.87877 1.42963 7.9271 1.31418C7.97543 1.19872 8.00032 1.07481 8.00032 0.949654C8.00032 0.824493 7.97543 0.700583 7.9271 0.585131C7.87877 0.469678 7.80797 0.364989 7.7188 0.277154C7.53727 0.0990601 7.29311 -0.000707626 7.0388 -0.000707626C6.7845 -0.000707626 6.54034 0.0990601 6.3588 0.277154" />
</svg>
