<?xml version="1.0" encoding="UTF-8"?>
<svg fill="none" viewBox="0 0 50 50" xmlns="http://www.w3.org/2000/svg">
<g clip-path="url(#a)">
<path d="m25 48.75c13.117 0 23.75-10.633 23.75-23.75s-10.633-23.75-23.75-23.75-23.75 10.633-23.75 23.75 10.633 23.75 23.75 23.75z" stroke="#fff" stroke-width="2"/>
<path d="m39.226 20.842-9.2363-9.2362c-0.4976-0.4968-1.1719-0.7758-1.875-0.7758s-1.3774 0.279-1.875 0.7758l-14.634 14.64c-0.4967 0.4975-0.7757 1.1719-0.7757 1.875s0.279 1.3774 0.7757 1.875l1.1388 1.1387 7.6537 7.6538h-1.0587c-0.1611 0-0.3156 0.064-0.4296 0.1779-0.1139 0.1139-0.1779 0.2684-0.1779 0.4296 0 0.1611 0.064 0.3156 0.1779 0.4295 0.114 0.114 0.2685 0.178 0.4296 0.178h12.152c0.1611 0 0.3156-0.064 0.4296-0.178 0.1139-0.1139 0.1779-0.2684 0.1779-0.4295 0-0.1612-0.064-0.3157-0.1779-0.4296-0.114-0.1139-0.2685-0.1779-0.4296-0.1779h-6.4638l14.198-14.202c0.4954-0.497 0.7736-1.1701 0.7736-1.8719s-0.2782-1.3749-0.7736-1.8719zm-0.8588 2.885-14.64 14.639c-0.1327 0.1329-0.2903 0.2382-0.4639 0.3098-0.1735 0.0717-0.3596 0.1083-0.5474 0.1077-0.1875 5e-4 -0.3733-0.0362-0.5467-0.1078-0.1733-0.0717-0.3308-0.1769-0.4633-0.3097l-7.6712-7.6713 14.059-14.054c0.0592-0.0558 0.1066-0.1228 0.1394-0.1973 0.0328-0.0744 0.0503-0.1546 0.0516-0.2359 0.0012-0.0813-0.0139-0.162-0.0445-0.2373-0.0305-0.0754-0.0759-0.1438-0.1334-0.2013s-0.1259-0.1029-0.2013-0.1334c-0.0753-0.0306-0.1561-0.0457-0.2374-0.0445s-0.1615 0.0187-0.2359 0.0515-0.1415 0.0802-0.1972 0.1394l-14.059 14.058-0.71-0.71c-0.2672-0.2695-0.4171-0.6336-0.4171-1.0131s0.1499-0.7437 0.4171-1.0131l14.639-14.638c0.2695-0.2673 0.6336-0.4172 1.0131-0.4172s0.7437 0.1499 1.0131 0.4172l3.2875 3.2875-14.06 14.059c-0.1083 0.115-0.1675 0.2677-0.1652 0.4256 0.0024 0.158 0.0662 0.3088 0.1779 0.4205s0.2625 0.1755 0.4205 0.1779c0.1579 0.0023 0.3106-0.0569 0.4256-0.1652l14.06-14.059 5.0887 5.0888c0.2687 0.2686 0.4197 0.6329 0.4199 1.0128 3e-4 0.3799-0.1503 0.7444-0.4186 1.0134z" fill="#fff"/>
<path d="m25.804 28.383c-0.1139-0.1138-0.2683-0.1777-0.4294-0.1777-0.161 0-0.3154 0.0639-0.4293 0.1777l-4.7813 4.7813c-0.114 0.1138-0.1781 0.2684-0.1783 0.4295-1e-4 0.1612 0.0638 0.3158 0.1777 0.4298 0.1139 0.1141 0.2684 0.1782 0.4296 0.1783 0.1611 2e-4 0.3157-0.0637 0.4298-0.1776l4.7812-4.7813c0.0566-0.0564 0.1014-0.1234 0.132-0.1972s0.0464-0.1529 0.0464-0.2328c0-0.0798-0.0158-0.159-0.0464-0.2327-0.0306-0.0738-0.0754-0.1408-0.132-0.1973z" fill="#fff"/>
<path d="m23.843 32.92-1.9613 1.9612c-0.114 0.1139-0.1782 0.2684-0.1783 0.4296s0.0638 0.3158 0.1777 0.4298c0.1139 0.1141 0.2684 0.1782 0.4295 0.1783 0.1612 1e-4 0.3158-0.0638 0.4299-0.1777l1.9612-1.9612c0.1083-0.115 0.1676-0.2677 0.1652-0.4256-0.0023-0.158-0.0661-0.3088-0.1778-0.4205s-0.2626-0.1755-0.4205-0.1779c-0.158-0.0023-0.3106 0.0569-0.4256 0.1652v-0.0012z" fill="#fff"/>
<path d="m25.648 31.116-0.2575 0.2574c-0.0592 0.0558-0.1066 0.1228-0.1394 0.1972s-0.0503 0.1547-0.0515 0.236 0.0139 0.162 0.0444 0.2374c0.0306 0.0753 0.076 0.1437 0.1334 0.2012 0.0575 0.0575 0.126 0.1029 0.2013 0.1335 0.0754 0.0305 0.1561 0.0456 0.2374 0.0444s0.1615-0.0187 0.2359-0.0515 0.1415-0.0802 0.1972-0.1394l0.2575-0.2575c0.1084-0.115 0.1676-0.2677 0.1652-0.4256-0.0023-0.158-0.0661-0.3088-0.1778-0.4205s-0.2625-0.1755-0.4205-0.1779c-0.1579-0.0023-0.3106 0.0569-0.4256 0.1653z" fill="#fff"/>
<path d="m34.02 20.164c-0.114-0.1138-0.2684-0.1778-0.4294-0.1778s-0.3155 0.064-0.4294 0.1778l-2.5775 2.5775c-0.1138 0.1139-0.1778 0.2683-0.1778 0.4294 0 0.161 0.064 0.3154 0.1778 0.4293l1.7188 1.7188c0.1139 0.1138 0.2683 0.1777 0.4293 0.1777 0.1611 0 0.3155-0.0639 0.4294-0.1777l2.5775-2.5775c0.1138-0.1139 0.1777-0.2684 0.1777-0.4294s-0.0639-0.3155-0.1777-0.4294l-1.7187-1.7187zm-1.2888 3.8662-0.8587-0.8587 1.7187-1.7188 0.8588 0.8588-1.7188 1.7187z" fill="#fff"/>
<path d="m29.082 15.4c0.0798 2e-4 0.1589-0.0153 0.2327-0.0458s0.1409-0.0752 0.1973-0.1317l0.2575-0.2575c0.1139-0.1141 0.1778-0.2687 0.1777-0.4298-2e-4 -0.1612-0.0643-0.3157-0.1783-0.4296-0.1141-0.1139-0.2687-0.1778-0.4298-0.1777-0.1612 2e-4 -0.3157 0.0643-0.4296 0.1783l-0.2575 0.2575c-0.0851 0.085-0.1432 0.1933-0.1667 0.3113-0.0235 0.1179-0.0114 0.2402 0.0346 0.3513 0.0461 0.1111 0.1241 0.2061 0.2241 0.2728 0.1001 0.0668 0.2177 0.1023 0.338 0.1021v-0.0012z" fill="#fff"/>
<path d="m16.941 31.229-0.2575 0.2575c-0.1141 0.1139-0.1782 0.2684-0.1783 0.4295-1e-4 0.1612 0.0638 0.3158 0.1777 0.4299 0.1138 0.114 0.2683 0.1781 0.4295 0.1783 0.1612 1e-4 0.3158-0.0638 0.4298-0.1777l0.2575-0.2575c0.0592-0.0558 0.1066-0.1228 0.1394-0.1972s0.0503-0.1546 0.0515-0.2359-0.0139-0.1621-0.0444-0.2374c-0.0306-0.0754-0.0759-0.1438-0.1334-0.2013s-0.126-0.1029-0.2013-0.1334c-0.0754-0.0306-0.1561-0.0457-0.2374-0.0445s-0.1615 0.0188-0.2359 0.0516-0.1415 0.0801-0.1972 0.1393v-0.0012z" fill="#fff"/>
</g>
<defs>
<clipPath id="a">
<rect width="50" height="50" fill="#fff"/>
</clipPath>
</defs>
</svg>
