<?xml version="1.0" encoding="UTF-8"?>
<svg viewBox="0 0 70 48" xmlns="http://www.w3.org/2000/svg">
<rect x=".5" y=".5" width="69" height="47" rx="5.5" fill="#1F72CD" stroke="#D9D9D9"/>
<path d="m12.549 17-6.5493 14.494h7.8405l0.972-2.3109h2.2217l0.972 2.3109h8.6302v-1.7637l0.769 1.7637h4.4642l0.769-1.801v1.801h17.948l2.1825-2.2509 2.0435 2.2509 9.2187 0.0186-6.57-7.2249 6.57-7.2872h-9.0757l-2.1245 2.2093-1.9792-2.2093h-19.526l-1.6767 3.7409-1.716-3.7409h-7.8241v1.7037l-0.8704-1.7037h-6.6903zm26.802 2.0581h10.307l3.1524 3.4052 3.254-3.4052h3.1524l-4.7897 5.2271 4.7897 5.1668h-3.2954l-3.1523-3.4447-3.2706 3.4447h-10.147v-10.394zm2.5452 4.0518v-1.9003h6.4312l2.8062 3.0362-2.9306 3.0528h-6.3068v-2.0726h5.6229v-2.1161h-5.6229zm-27.83-4.0518h3.8219l4.3441 9.8281v-9.8281h4.1867l3.3554 7.0467 3.0923-7.0467h4.1658v10.4h-2.5348l-0.0207-8.1494-3.6954 8.1494h-2.2675l-3.7161-8.1494v8.1494h-5.2145l-0.9886-2.3315h-5.341l-0.9865 2.3295h-2.7939l4.5928-10.398zm0.0996 5.9131 1.7596-4.1535 1.7576 4.1535h-3.5172z" clip-rule="evenodd" fill="#fff" fill-rule="evenodd"/>
</svg>
