<?xml version="1.0" encoding="UTF-8"?>
<svg viewBox="0 0 70 48" xmlns="http://www.w3.org/2000/svg">
<rect x=".5" y=".5" width="69" height="47" rx="5.5" fill="#fff" stroke="#D9D9D9"/>
<path d="m38.09 39c7.7951 0.0377 14.91-6.4156 14.91-14.266 0-8.584-7.1149-14.518-14.91-14.515h-6.7087c-7.888-0.0032-14.381 5.9326-14.381 14.515 0 7.8519 6.4933 14.304 14.381 14.266h6.7087z" fill="#0079BE"/>
<path d="m31.413 11.408c-7.2086 0.0025-13.049 5.8982-13.052 13.175 0.0024 7.276 5.8429 13.172 13.052 13.174 7.2095-0.0024 13.052-5.8981 13.053-13.174-8e-4 -7.2767-5.8428-13.172-13.053-13.175zm-8.2724 13.175c-0.0015-1.6824 0.5045-3.3262 1.4521-4.7165 0.9475-1.3902 2.2924-2.4623 3.8588-3.0761v15.584c-1.5666-0.6133-2.9116-1.6852-3.8592-3.0754-0.9475-1.3902-1.4535-3.034-1.4517-4.7164zm11.233 7.795v-15.588c1.5677 0.6129 2.9137 1.6849 3.8619 3.0756 0.9482 1.3908 1.4544 3.0354 1.4523 4.7186 0.0018 1.6832-0.5045 3.3277-1.4527 4.7183-0.9482 1.3907-2.294 2.4627-3.8615 3.0759z" fill="#fff"/>
<path d="m38.09 39c7.7951 0.0377 14.91-6.4156 14.91-14.266 0-8.584-7.1149-14.518-14.91-14.515h-6.7087c-7.888-0.0032-14.381 5.9326-14.381 14.515 0 7.8519 6.4933 14.304 14.381 14.266h6.7087z" fill="#0079BE"/>
<path d="m31.413 11.408c-7.2086 0.0025-13.049 5.8982-13.052 13.175 0.0024 7.276 5.8429 13.172 13.052 13.174 7.2095-0.0024 13.052-5.8981 13.053-13.174-8e-4 -7.2767-5.8428-13.172-13.053-13.175zm-8.2724 13.175c-0.0015-1.6824 0.5045-3.3262 1.4521-4.7165 0.9475-1.3902 2.2924-2.4623 3.8588-3.0761v15.584c-1.5666-0.6133-2.9116-1.6852-3.8592-3.0754-0.9475-1.3902-1.4535-3.034-1.4517-4.7164zm11.233 7.795v-15.588c1.5677 0.6129 2.9137 1.6849 3.8619 3.0756 0.9482 1.3908 1.4544 3.0354 1.4523 4.7186 0.0018 1.6832-0.5045 3.3277-1.4527 4.7183-0.9482 1.3907-2.294 2.4627-3.8615 3.0759z" fill="#fff"/>
</svg>
