<?xml version="1.0" encoding="UTF-8"?>
<svg viewBox="0 0 70 48" xmlns="http://www.w3.org/2000/svg">
<rect x=".5" y=".5" width="69" height="47" rx="5.5" fill="#fff" stroke="#D9D9D9"/>
<path d="m29.468 47 39.5-11.5v6.5c0 2.7614-2.2385 5-5 5h-34.5z" fill="#FD6020"/>
<path d="m61.471 19.222c2.1731 0 3.3683 0.9671 3.3683 2.7938 0.1087 1.3969-0.8692 2.5789-2.1731 2.7938l2.9337 3.9758h-2.2818l-2.499-3.8683h-0.2174v3.8683h-1.8471v-9.5634h2.7164zm-0.8693 4.4056h0.5433c1.1952 0 1.7385-0.5373 1.7385-1.5044 0-0.8596-0.5433-1.3969-1.7385-1.3969h-0.5433v2.9013zm-8.2578 5.1578h5.2155v-1.6118h-3.3683v-2.5789h3.2596v-1.6118h-3.2596v-2.1491h3.3683v-1.6118h-5.2155v9.5634zm-5.4328-3.1162-2.499-6.4472h-1.9558l4.0202 9.7783h0.9779l4.0203-9.7783h-1.9558l-2.6078 6.4472zm-22.057-1.6118c0 2.6864 2.1732 4.9429 4.8896 4.9429 0.8692 0 1.6298-0.2149 2.3904-0.5373v-2.149c-0.5433 0.6447-1.3039 1.0745-2.1731 1.0745-1.7385 0-3.1511-1.2895-3.1511-3.0087v-0.2149c-0.1086-1.7193 1.3039-3.2236 3.0424-3.3311 0.8693 0 1.7385 0.4298 2.2818 1.0745v-2.149c-0.652-0.4299-1.5212-0.5373-2.2818-0.5373-2.825-0.2149-4.9982 2.0416-4.9982 4.8354zm-3.3683-1.182c-1.0865-0.4298-1.4125-0.6447-1.4125-1.182 0.1087-0.6447 0.6519-1.182 1.3039-1.0745 0.5432 0 1.0865 0.3224 1.5211 0.7522l0.9779-1.2895c-0.7605-0.6447-1.7384-1.0745-2.7163-1.0745-1.5212-0.1075-2.8251 1.0745-2.9337 2.5789v0.1074c0 1.2895 0.5432 2.0417 2.2817 2.5789 0.4346 0.1075 0.8693 0.3224 1.3039 0.5373 0.326 0.2149 0.5433 0.5373 0.5433 0.9671 0 0.7522-0.652 1.3969-1.3039 1.3969h-0.1087c-0.8692 0-1.6298-0.5373-1.9558-1.2895l-1.1952 1.182c0.652 1.182 1.9558 1.8267 3.2597 1.8267 1.7385 0.1075 3.151-1.1819 3.2597-2.9012v-0.3224c-0.1087-1.2894-0.652-1.9341-2.8251-2.7938zm-6.302 5.91h1.8471v-9.5634h-1.8471v9.5634zm-8.5838-9.5634h3.2597c2.6077 0.1075 4.6722 2.2565 4.5635 4.8354 0 1.3969-0.6519 2.6864-1.7385 3.6535-0.9779 0.7521-2.1731 1.182-3.3683 1.0745h-2.7164v-9.5634zm2.3904 7.9516c0.86925 0.1074 1.8472-0.2149 2.4991-0.7522 0.6519-0.6447 0.9779-1.5043 0.9779-2.4714 0-0.8597-0.326-1.7193-0.9779-2.364-0.6519-0.5373-1.6298-0.8596-2.4991-0.7522h-0.54328v6.3398h0.54328z" clip-rule="evenodd" fill-rule="evenodd"/>
<path d="m37.676 19c-2.7164 0-4.9981 2.1491-4.9981 4.9429 0 2.6863 2.1731 4.9429 4.9981 5.0503 2.8251 0.1075 4.9982-2.1491 5.1068-4.9429-0.1086-2.7938-2.2817-5.0503-5.1068-5.0503z" clip-rule="evenodd" fill="#FD6020" fill-rule="evenodd"/>
</svg>
