<?xml version="1.0" encoding="UTF-8"?>
<svg viewBox="0 0 70 48" xmlns="http://www.w3.org/2000/svg">
<rect x=".5" y=".5" width="69" height="47" rx="5.5" fill="#fff" stroke="#D9D9D9"/>
<path d="m23.835 25.111c-0.5613 2.7054-2.9979 4.7397-5.9184 4.7397-0.67 0-1.315-0.1074-1.9168-0.3053l-1.3414 3.9359c1.0237 0.3366 2.1191 0.5186 3.2582 0.5186 4.9642 0 9.105-3.4593 10.059-8.0562l-4.1409-0.8327z" fill="#EC412A"/>
<path d="m47.905 16.222v11.381l2.0423 0.8186-0.9661 2.2446-2.0197-0.8118c-0.4541-0.1904-0.7614-0.4805-0.9949-0.8082-0.2242-0.3353-0.3904-0.7935-0.3904-1.4119v-11.412h2.3288zm-15.489 8.4584c0.0508-3.2545 2.8223-5.8524 6.1854-5.8025 2.8545 0.0433 5.2195 1.9766 5.8407 4.548l-11.04 4.5628c-0.6413-0.9481-1.0058-2.0886-0.9862-3.3083zm2.5261 0.4563c-0.0151-0.1366-0.0259-0.2766-0.0218-0.4178 0.0317-1.9175 1.6634-3.4475 3.6448-3.4157 1.0785 0.0139 2.0362 0.4915 2.6836 1.2306l-6.3066 2.6029zm6.0742 2.1129c-0.6654 0.6258-1.5677 1.0072-2.564 0.9935-0.6828-0.0111-1.3155-0.2088-1.8535-0.5382l-1.3337 2.0549c0.9134 0.5583 1.9904 0.8886 3.1514 0.906 1.6901 0.0243 3.2305-0.6177 4.3505-1.6777l-1.7507-1.7385zm15.389-5.9465c-0.3978 0-0.7802 0.0622-1.1374 0.1781l-0.7946-2.3027c0.6065-0.1958 1.256-0.3022 1.932-0.3022 2.9497 0 5.4103 2.0261 5.9746 4.7176l-2.46 0.485c-0.3315-1.584-1.7791-2.7758-3.5146-2.7758zm-4.039 7.8837 1.6622-1.8176c-0.7424-0.6355-1.2098-1.5637-1.2098-2.5983 0-1.0336 0.4674-1.9613 1.2091-2.5964l-1.6634-1.8176c-1.261 1.0799-2.0556 2.6579-2.0556 4.414 0 1.7582 0.7952 3.3356 2.0575 4.4159zm4.0388-0.9469c1.734 0 3.1814-1.1907 3.5148-2.7724l2.4593 0.487c-0.567 2.6886-3.027 4.712-5.9741 4.712-0.6764 0-1.3268-0.1068-1.935-0.3035l0.7966-2.3019c0.3578 0.1156 0.7404 0.1788 1.1384 0.1788z" clip-rule="evenodd" fill-rule="evenodd"/>
<path d="m11.069 31.778 2.4801-3.2023c-1.107-1.1198-1.8057-2.7546-1.8057-4.5768 0-1.8208 0.698-3.4556 1.8048-4.5745l-2.4815-3.202c-1.8811 1.9025-3.0665 4.6814-3.0665 7.7765 0 3.0967 1.1872 5.8767 3.0688 7.7791z" fill="#1BA7DE"/>
<path d="m15.998 18.451c0.6018-0.1973 1.2455-0.3044 1.9152-0.3044 2.9231 0 5.3613 2.0369 5.9206 4.7427l4.1422-0.8285c-0.9505-4.5987-5.0941-8.0604-10.063-8.0604-1.1376 0-2.2325 0.1818-3.2547 0.5167l1.3395 3.9339z" fill="#FECA2F"/>
</svg>
