<?xml version="1.0" encoding="UTF-8"?>
<svg viewBox="0 0 70 48" xmlns="http://www.w3.org/2000/svg">
<rect x=".5" y=".5" width="69" height="47" rx="5.5" fill="#fff" stroke="#D9D9D9"/>
<path d="m24.177 13.594h-4.9748c-2.1981 0.1039-3.9949 0.9892-4.5137 2.8149-0.2705 0.9522-0.4194 1.9979-0.6309 2.9849-1.0754 5.0187-2.0289 10.176-3.0576 15.094h38.73c2.9941 0 5.0499-0.6327 5.6056-3.0091 0.2581-1.1039 0.5053-2.3544 0.7523-3.5673 0.9626-4.7289 1.926-9.4576 2.912-14.317h-34.823z" fill="#B82126"/>
<path d="m44.159 26.077c-0.5372 0.5258-2.0449 0.6752-1.8907-0.5818 0.1281-1.0439 1.2647-1.2658 2.4966-1.115-0.0916 0.571-0.1966 1.2961-0.6059 1.6968zm-1.6968-4.0722c-0.0513 0.288-0.1301 0.5486-0.1939 0.8241 0.6151-0.1542 2.5303-0.627 2.7148 0.1938 0.0613 0.2728-0.0444 0.5626-0.1212 0.7758-1.7319-0.1641-3.1435 0.1236-3.5147 1.3573-0.2487 0.8264 0.0279 1.6396 0.5575 1.8666 1.0202 0.437 2.261-0.0637 2.6906-0.7515-0.0446 0.2382-0.0869 0.4786-0.0728 0.7757h0.8969c0.0095-0.859 0.1345-1.5542 0.2666-2.3271 0.1127-0.6582 0.3245-1.3097 0.2908-1.8906-0.0769-1.3304-2.2809-0.8598-3.5146-0.8241zm8.9928 4.4842c-0.7017 0.0151-1.0506-0.4192-1.0666-1.1392-0.0279-1.261 0.5252-2.6619 1.6483-2.7876 0.5229-0.0584 0.9016 0.0632 1.2847 0.194-0.3517 1.4164-0.2247 3.6976-1.8664 3.7328zm2.3269-6.6658c-0.0893 0.7833-0.2087 1.5365-0.3635 2.2542-2.5567-0.8092-4.1247 1.0718-4.0965 3.3935 0.0055 0.4491 0.0828 0.8943 0.3636 1.212 0.484 0.5474 1.8698 0.6783 2.5694 0.2182 0.1355-0.089 0.2738-0.2511 0.3636-0.3635 0.0674-0.0847 0.1745-0.3063 0.1938-0.2426-0.0367 0.2461-0.0916 0.474-0.0968 0.7516h0.9453c0.1821-2.6135 0.7455-4.8458 1.1635-7.2234h-1.0424zm-26.687 6.278c-0.5577 0.5906-1.9286 0.5816-2.0361-0.4121-0.0468-0.4324 0.1143-0.8857 0.1939-1.3331 0.0806-0.4528 0.1386-0.8872 0.2181-1.2848 0.5493-0.6707 2.1633-0.7516 2.3271 0.3637 0.1421 0.9683-0.2412 2.1772-0.703 2.6663zm0.8242-4.0964c-0.8822-0.3314-1.9574 0.0642-2.4235 0.4404 0.0016 0.0166-0.0111 0.0189-0.0248 0.0201 8e-3 -0.0067 0.0166-0.0134 0.0248-0.0201-1e-4 -0.0014-1e-4 -0.0026-5e-4 -0.0041 0.0079-0.1619 0.0648-0.2745 0.0727-0.4363h-0.8968c-0.3738 2.4865-0.817 4.9034-1.2847 7.296h1.0422c0.1509-0.9319 0.2506-1.9149 0.4606-2.7875 0.2381 0.9178 1.7923 0.7424 2.4481 0.3878 1.3534-0.7317 2.3971-4.2144 0.5819-4.8963zm4.9447 1.7452h-2.4481c0.0775-0.5628 0.5838-1.1815 1.3816-1.212 0.7509-0.0287 1.2885 0.2757 1.0665 1.212zm-0.9938-1.8422c-0.7531 0.058-1.3897 0.2748-1.8421 0.7514-0.5549 0.5846-1.0044 1.8771-0.8727 3.0542 0.1879 1.6792 2.2787 1.619 3.9511 1.2119 0.0284-0.2946 0.0997-0.5466 0.1454-0.8241-0.689 0.2578-1.8851 0.6176-2.5936 0.1697-0.535-0.3382-0.5381-1.1948-0.3636-1.9392 1.124-0.0357 2.2922-0.0289 3.4177 0 0.0714-0.5276 0.2758-1.1028 0.0969-1.624-0.2358-0.688-1.08-0.866-1.9391-0.7999zm-9.1624 0.097c-0.0282 4e-3 -0.0264 0.0383-0.0243 0.0726-0.2296 1.7176-0.5404 3.3541-0.8726 4.9692h1.0423c0.2505-1.7292 0.5373-3.4218 0.8969-5.0418h-1.0423zm27.196 0.0242c-0.9212-0.4606-1.6881 0.3122-1.9876 0.7756 0.0853-0.2378 0.0902-0.5561 0.1696-0.7998h-0.9211c-0.2483 1.7312-0.5478 3.4113-0.8968 5.0418h1.0665c0.0068-0.6683 0.138-1.1626 0.2424-1.818 0.2229-1.3993 0.5501-2.9339 2.1816-2.4724 0.0541-0.2367 0.0766-0.5051 0.1454-0.7272zm-11.708 3.8298c-0.096-0.2482-0.1209-0.6581-0.0969-0.9696 0.0539-0.7004 0.3091-1.5531 0.703-1.9391 0.5435-0.5328 1.6165-0.4446 2.4723-0.1455 0.0266-0.2885 0.0846-0.5457 0.1213-0.824-1.4037-0.2293-2.7358-0.0867-3.442 0.6544-0.6913 0.7254-1.1446 2.3928-0.8242 3.442 0.3751 1.2276 2.0564 1.2944 3.4179 0.8241 0.0601-0.2467 0.092-0.5218 0.1454-0.7757-0.7439 0.3866-2.1661 0.5874-2.4968-0.2666zm-0.5816-3.854c-0.9242-0.3733-1.6507 0.2575-1.9876 0.8483 0.0763-0.2628 0.1079-0.5707 0.1696-0.8483h-0.9211c-0.2251 1.7463-0.5571 3.3859-0.8726 5.0418h1.0424c0.146-0.983 0.2091-2.3079 0.5332-3.2481 0.259-0.7514 0.9368-1.3915 1.9149-1.0423 0.0137-0.2772 0.0931-0.4887 0.1212-0.7514zm-16.798-2.0362c-0.1489 0.9661-0.3167 1.9134-0.4848 2.8603-1.0799 0.0114-2.1823 0.0533-3.2239-0.0243 0.1968-0.9262 0.3378-1.9083 0.5332-2.836h-1.1634c-0.4165 2.363-0.7954 4.7636-1.2604 7.078h1.1877c0.1863-1.1873 0.3605-2.3867 0.6059-3.5148 1.0127-0.0249 2.2265-0.0684 3.1996 0.0243-0.2006 1.1729-0.4431 2.3039-0.6302 3.4905h1.1878c0.3815-2.3979 0.7837-4.7752 1.2604-7.078h-1.2119zm2.9571 1.0666c0.2078-0.1431 0.4754-0.7951 0.1697-1.0666-0.0968-0.0859-0.2589-0.1108-0.4848-0.0726-0.2096 0.0354-0.3301 0.1065-0.412 0.218-0.1318 0.1794-0.2524 0.7202-0.0486 0.9212 0.1986 0.1956 0.6435 0.091 0.7757 0z" fill="#fff"/>
</svg>
