<?xml version="1.0" encoding="UTF-8"?>
<svg fill="none" viewBox="0 0 70 48" xmlns="http://www.w3.org/2000/svg">
<rect x=".5" y=".5" width="69" height="47" rx="5.5" fill="#fff" stroke="#D9D9D9"/>
<path d="m44.636 24.575c1.0274 0.0223 2.0606-0.0454 3.0838 0.0352 1.0363 0.1933 1.286 1.762 0.3654 2.2758-0.6282 0.3385-1.3744 0.1261-2.0554 0.1858h-1.3938v-2.4968zm3.6778-2.826c0.2283 0.8056-0.5484 1.529-1.3243 1.418h-2.3535c0.0165-0.7597-0.0322-1.5844 0.0239-2.3041 0.9428 0.0265 1.8943-0.0542 2.8317 0.0422 0.4027 0.1011 0.7398 0.4322 0.8222 0.8439zm5.664-11.948c0.0437 1.5386 0.0063 3.1585 0.0189 4.7283-0.0029 6.3823 0.0061 12.764-0.0051 19.147-0.0413 2.3919-2.1611 4.4703-4.5364 4.518-2.3777 0.0097-4.7557 0.0015-7.1337 0.0042v-9.6487c2.5909-0.0134 5.1832 0.0271 7.7731-0.0203 1.2014-0.0754 2.5174-0.8681 2.5733-2.1903 0.1415-1.3278-1.1104-2.2463-2.299-2.3914-0.4569-0.0118-0.4436-0.1332 0-0.1861 1.1336-0.245 2.0238-1.4183 1.6903-2.5934-0.2842-1.2359-1.6503-1.7142-2.7865-1.7119-2.3167-0.0157-4.6339-0.0022-6.9507-0.0067 0.015-1.8013-0.0312-3.6046 0.0249-5.4045 0.1836-2.3488 2.3567-4.2857 4.6987-4.2437 2.311-3.5e-4 4.6217-3.5e-4 6.9322-4.4e-4v-1.8e-4z" fill="url(#c)"/>
<path d="m16.141 14.288c0.0592-2.3882 2.188-4.4495 4.5603-4.4844 2.3689-0.0073 4.7381-0.00106 7.107-0.00317-0.0065 7.9902 0.0129 15.981-0.0097 23.971-0.0913 2.3591-2.1969 4.3811-4.5434 4.4229-2.3734 0.0086-4.747 0.0012-7.1204 0.0036v-9.974c2.3054 0.5447 4.7229 0.7765 7.0749 0.4153 1.4058-0.2263 2.944-0.9167 3.4199-2.3752 0.3503-1.2476 0.1531-2.5606 0.2052-3.8411v-2.9737h-4.0702c-0.0183 1.9668 0.0375 3.9369-0.0294 5.9013-0.1097 1.2074-1.3055 1.9746-2.4442 1.9336-1.4123 0.015-4.2109-1.0235-4.2109-1.0235-7e-3 -3.6849 0.041-8.2996 0.0609-11.972v-3e-4z" fill="url(#b)"/>
<path d="m29.326 20.649c-0.2143 0.0454-0.0431-0.7298-0.0979-1.0239 0.0146-1.8594-0.0305-3.7208 0.0249-5.5789 0.1831-2.3587 2.3729-4.3004 4.7244-4.2452h6.9248c-0.0065 7.9901 0.0128 15.981-0.0097 23.971-0.0914 2.3591-2.1972 4.3811-4.5437 4.4229-2.3735 9e-3 -4.7471 0.0015-7.1208 0.0037v-10.928c1.6211 1.3301 3.8243 1.5371 5.8439 1.5407 1.5225-5e-4 3.0361-0.2353 4.5147-0.5864v-2.002c-1.6663 0.8304-3.625 1.3579-5.4721 0.8808-1.2885-0.3207-2.2238-1.5659-2.2029-2.8956-0.1493-1.3829 0.6612-2.8428 2.0201-3.2539 1.6872-0.5282 3.526-0.1242 5.1075 0.5625 0.3388 0.1774 0.6828 0.3975 0.5473-0.1689v-1.5736c-2.645-0.6293-5.4599-0.8608-8.1172-0.1762-0.7691 0.2169-1.5185 0.546-2.1433 1.0511v-2e-4z" fill="url(#a)"/>
<defs>
<linearGradient id="c" x1="42.242" x2="53.923" y1="23.392" y2="23.392" gradientUnits="userSpaceOnUse">
<stop stop-color="#58B03A" offset="0"/>
<stop stop-color="#55B330" offset="1"/>
</linearGradient>
<linearGradient id="b" x1="15.887" x2="27.617" y1="24.272" y2="24.272" gradientUnits="userSpaceOnUse">
<stop stop-color="#0F6EB6" offset="0"/>
<stop stop-color="#006DBA" offset="1"/>
</linearGradient>
<linearGradient id="a" x1="29.211" x2="40.9" y1="23.668" y2="23.668" gradientUnits="userSpaceOnUse">
<stop stop-color="#DE0D3D" offset="0"/>
<stop stop-color="#E30138" offset="1"/>
</linearGradient>
</defs>
</svg>
