<?xml version="1.0" encoding="UTF-8"?>
<svg viewBox="0 0 70 48" xmlns="http://www.w3.org/2000/svg">
<rect x=".5" y=".5" width="69" height="47" rx="5.5" fill="#fff" stroke="#D9D9D9"/>
<path d="m40.19 24.254c0 7.6248-6.1103 13.806-13.648 13.806s-13.648-6.1812-13.648-13.806 6.1102-13.806 13.648-13.806 13.648 6.1812 13.648 13.806z" fill="#ED0006"/>
<path d="m57.895 24.254c0 7.6248-6.1102 13.806-13.648 13.806-7.5373 0-13.648-6.1812-13.648-13.806s6.1102-13.806 13.648-13.806c7.5374 0 13.648 6.1812 13.648 13.806z" fill="#0099DF"/>
<path d="m35.395 13.746c2.9344 2.5322 4.795 6.3002 4.795 10.508s-1.8606 7.9756-4.795 10.508c-2.9343-2.5323-4.795-6.3003-4.795-10.508s1.8607-7.9756 4.795-10.508z" clip-rule="evenodd" fill="#6C6BBD" fill-rule="evenodd"/>
</svg>
