<?xml version="1.0" encoding="UTF-8"?>
<svg viewBox="0 0 70 48" xmlns="http://www.w3.org/2000/svg">
<rect x=".5" y=".5" width="69" height="47" rx="5.5" fill="#fff" stroke="#D9D9D9"/>
<path d="m35.5 34.314c-2.3831 2.0565-5.4745 3.298-8.8525 3.298-7.5373 0-13.648-6.1811-13.648-13.806 0-7.6249 6.1102-13.806 13.648-13.806 3.378 0 6.4694 1.2415 8.8525 3.2981 2.3831-2.0566 5.4745-3.2981 8.8525-3.2981 7.5373 0 13.648 6.1811 13.648 13.806 0 7.6248-6.1102 13.806-13.648 13.806-3.378 0-6.4694-1.2415-8.8525-3.298z" clip-rule="evenodd" fill="#ED0006" fill-rule="evenodd"/>
<path d="m35.5 34.314c2.9344-2.5323 4.7951-6.3003 4.7951-10.508 0-4.2077-1.8607-7.9757-4.7951-10.508 2.3831-2.0566 5.4745-3.2981 8.8524-3.2981 7.5374 0 13.648 6.1811 13.648 13.806 0 7.6248-6.1102 13.806-13.648 13.806-3.3779 0-6.4693-1.2415-8.8524-3.298z" clip-rule="evenodd" fill="#F9A000" fill-rule="evenodd"/>
<path d="m35.5 13.298c2.9344 2.5323 4.7951 6.3003 4.7951 10.508s-1.8607 7.9756-4.7951 10.508c-2.9343-2.5322-4.795-6.3002-4.795-10.508s1.8607-7.9756 4.795-10.508z" clip-rule="evenodd" fill="#FF5E00" fill-rule="evenodd"/>
</svg>
