<?xml version="1.0" encoding="UTF-8"?>
<svg viewBox="0 0 70 48" xmlns="http://www.w3.org/2000/svg">
<rect x=".5" y=".5" width="69" height="47" rx="5.5" fill="#fff" stroke="#D9D9D9"/>
<path d="m21.25 32.516h-4.2406l-3.18-12.132c-0.1509-0.558-0.4714-1.0514-0.9428-1.2839-1.1765-0.5843-2.4729-1.0494-3.8871-1.2839v-0.4671h6.8313c0.9429 0 1.65 0.7016 1.7678 1.5165l1.65 8.751 4.2386-10.268h4.1227l-6.3599 15.167zm8.717 0h-4.0049l3.2978-15.167h4.0049l-3.2978 15.167zm8.4792-10.965c0.1179-0.8168 0.825-1.2839 1.65-1.2839 1.2964-0.1173 2.7085 0.1173 3.8871 0.6996l0.7071-3.2655c-1.1786-0.4671-2.4749-0.7016-3.6514-0.7016-3.8871 0-6.7156 2.1008-6.7156 5.0165 0 2.2181 2.0035 3.3827 3.4178 4.0843 1.53 0.6996 2.1193 1.1667 2.0014 1.8663 0 1.0494-1.1785 1.5165-2.355 1.5165-1.4142 0-2.8285-0.3498-4.1228-0.9342l-0.7071 3.2675c1.4142 0.5823 2.9443 0.8169 4.3585 0.8169 4.3585 0.1152 7.0671-1.9836 7.0671-5.1338 0-3.9671-5.5371-4.1996-5.5371-5.9486zm19.553 10.965-3.18-15.167h-3.4156c-0.7072 0-1.4143 0.4671-1.65 1.1667l-5.8885 14h4.1228l0.8229-2.2161h5.0656l0.4714 2.2161h3.6514zm-6.0064-11.082 1.1765 5.716h-3.2978l2.1213-5.716z" clip-rule="evenodd" fill="#172B85" fill-rule="evenodd"/>
</svg>
